<?xml version="1.0" encoding="UTF-8"?>
<svg width="20px" height="20px" viewBox="0 0 20 20" version="1.1" xmlns="http://www.w3.org/2000/svg" xmlns:xlink="http://www.w3.org/1999/xlink">
    <!-- Generator: Sketch 51.3 (57544) - http://www.bohemiancoding.com/sketch -->
    <title>Combined Shape</title>
    <desc>Created with Sketch.</desc>
    <defs></defs>
    <g id="Screens" stroke="none" stroke-width="1" fill="none" fill-rule="evenodd">
        <g id="Landing-Page" transform="translate(-1159.000000, -65.000000)" fill="#FFFFFF">
            <path d="M1168.97707,65 C1166.26745,65 1165.92768,65.0114851 1164.86356,65.0600396 C1163.80158,65.1084752 1163.07636,65.2771485 1162.4417,65.5237624 C1161.78562,65.7787327 1161.22923,66.1198812 1160.67457,66.6745347 C1160.11992,67.2292277 1159.77877,67.7856238 1159.5238,68.441703 C1159.27715,69.0763168 1159.10851,69.8015842 1159.06004,70.8635248 C1159.01149,71.9276832 1159,72.2674455 1159,74.9770693 C1159,77.6866535 1159.01149,78.0264158 1159.06004,79.0905743 C1159.10851,80.1525149 1159.27715,80.8777822 1159.5238,81.512396 C1159.77877,82.1684752 1160.11992,82.7248713 1160.67457,83.2795644 C1161.22923,83.8342178 1161.78562,84.1753663 1162.4417,84.4303366 C1163.07636,84.6769505 1163.80158,84.8456238 1164.86356,84.8940594 C1165.92768,84.9426139 1166.26745,84.954099 1168.97707,84.954099 C1171.68669,84.954099 1172.02646,84.9426139 1173.09057,84.8940594 C1174.15255,84.8456238 1174.87778,84.6769505 1175.51244,84.4303366 C1176.16851,84.1753663 1176.72491,83.8342178 1177.27956,83.2795644 C1177.83422,82.7248713 1178.17537,82.1684752 1178.43034,81.512396 C1178.67699,80.8777822 1178.84562,80.1525149 1178.8941,79.0905743 C1178.94265,78.0264158 1178.95414,77.6866535 1178.95414,74.9770693 C1178.95414,72.2674455 1178.94265,71.9276832 1178.8941,70.8635248 C1178.84562,69.8015842 1178.67699,69.0763168 1178.43034,68.441703 C1178.17537,67.7856238 1177.83422,67.2292277 1177.27956,66.6745347 C1176.72491,66.1198812 1176.16851,65.7787327 1175.51244,65.5237624 C1174.87778,65.2771485 1174.15255,65.1084752 1173.09057,65.0600396 C1172.02646,65.0114851 1171.68669,65 1168.97707,65 M1168.97707,66.7976634 C1171.64107,66.7976634 1171.95659,66.8078416 1173.00863,66.8558416 C1173.98139,66.900198 1174.5097,67.0627327 1174.86127,67.1993663 C1175.32693,67.3803564 1175.65929,67.5965545 1176.00844,67.945703 C1176.35754,68.2948119 1176.57378,68.6271683 1176.75477,69.0928713 C1176.89137,69.4444356 1177.0539,69.9727129 1177.0983,70.9454653 C1177.1463,71.997505 1177.15644,72.3130693 1177.15644,74.9770693 C1177.15644,77.6410297 1177.1463,77.9565941 1177.0983,79.0086337 C1177.0539,79.9813861 1176.89137,80.5096634 1176.75477,80.8612277 C1176.57378,81.3269307 1176.35754,81.6592871 1176.00844,82.008396 C1175.65929,82.3575446 1175.32693,82.5737426 1174.86127,82.7547327 C1174.5097,82.8913663 1173.98139,83.053901 1173.00863,83.0982574 C1171.95675,83.1462574 1171.64123,83.1564356 1168.97707,83.1564356 C1166.31291,83.1564356 1165.99739,83.1462574 1164.9455,83.0982574 C1163.97275,83.053901 1163.44444,82.8913663 1163.09287,82.7547327 C1162.62721,82.5737426 1162.29485,82.3575446 1161.9457,82.008396 C1161.59659,81.6592871 1161.38036,81.3269307 1161.19937,80.8612277 C1161.06277,80.5096634 1160.90024,79.9813861 1160.85584,79.0086337 C1160.80784,77.9565941 1160.7977,77.6410297 1160.7977,74.9770693 C1160.7977,72.3130693 1160.80784,71.997505 1160.85584,70.9454653 C1160.90024,69.9727129 1161.06277,69.4444356 1161.19937,69.0928713 C1161.38036,68.6271683 1161.59659,68.2948119 1161.9457,67.945703 C1162.29485,67.5965545 1162.62721,67.3803564 1163.09287,67.1993663 C1163.44444,67.0627327 1163.97275,66.900198 1164.94547,66.8558416 C1165.99754,66.8078416 1166.31307,66.7976634 1168.97707,66.7976634 Z M1168.97707,69.853699 C1166.14752,69.853699 1163.8537,72.1474812 1163.8537,74.9770653 C1163.8537,77.8066099 1166.14752,80.1003921 1168.97707,80.1003921 C1171.80661,80.1003921 1174.10044,77.8066099 1174.10044,74.9770653 C1174.10044,72.1474812 1171.80661,69.853699 1168.97707,69.853699 Z M1168.97707,78.3027287 C1167.14036,78.3027287 1165.65137,76.8137782 1165.65137,74.9770653 C1165.65137,73.1403129 1167.14036,71.6513624 1168.97707,71.6513624 C1170.81378,71.6513624 1172.30273,73.1403129 1172.30273,74.9770653 C1172.30273,76.8137782 1170.81378,78.3027287 1168.97707,78.3027287 Z M1175.50009,69.6512752 C1175.50009,68.9900475 1174.96405,68.4540475 1174.30286,68.4540475 C1173.64164,68.4540475 1173.1056,68.9900475 1173.1056,69.6512752 C1173.1056,70.312503 1173.64164,70.848503 1174.30286,70.848503 C1174.96405,70.848503 1175.50009,70.312503 1175.50009,69.6512752 Z" id="Combined-Shape"></path>
        </g>
    </g>
</svg>