<?xml version="1.0" encoding="UTF-8"?>
<svg width="24px" height="20px" viewBox="0 0 24 20" version="1.1" xmlns="http://www.w3.org/2000/svg" xmlns:xlink="http://www.w3.org/1999/xlink">
    <!-- Generator: Sketch 51.2 (57519) - http://www.bohemiancoding.com/sketch -->
    <title>Fill 1</title>
    <desc>Created with Sketch.</desc>
    <defs></defs>
    <g id="Screens" stroke="none" stroke-width="1" fill="none" fill-rule="evenodd">
        <g id="Landing-Page" transform="translate(-1196.000000, -65.000000)" fill="#FFFFFF">
            <path d="M1203.54781,85 C1212.60474,85 1217.55766,77.3061552 1217.55766,70.6346652 C1217.55766,70.4160391 1217.55334,70.1984959 1217.54355,69.981937 C1218.5049,69.2693599 1219.34067,68.3801888 1220,67.367776 C1219.11766,67.7695912 1218.16822,68.0404867 1217.17222,68.1626456 C1218.18877,67.5376763 1218.96934,66.5485929 1219.33741,65.3697251 C1218.38586,65.9480357 1217.33245,66.3687506 1216.21088,66.5952515 C1215.31232,65.613846 1214.03274,65 1212.61664,65 C1209.89725,65 1207.69194,67.2612684 1207.69194,70.0485781 C1207.69194,70.4448808 1207.73523,70.8300603 1207.81971,71.1997854 C1203.72752,70.9888374 1200.09862,68.9796632 1197.6704,65.9247064 C1197.24714,66.6706533 1197.00349,67.5376763 1197.00349,68.4623827 C1197.00349,70.2140488 1197.87286,71.7603776 1199.19469,72.6650031 C1198.38704,72.6395082 1197.62816,72.4119245 1196.96451,72.0334387 C1196.96346,72.0545039 1196.96346,72.0755692 1196.96346,72.0977173 C1196.96346,74.5432576 1198.66102,76.5846204 1200.91386,77.0475642 C1200.50029,77.162931 1200.06512,77.2251425 1199.61584,77.2251425 C1199.29866,77.2251425 1198.99011,77.192954 1198.69021,77.1340893 C1199.31699,79.1400152 1201.13466,80.5997204 1203.29014,80.6408666 C1201.60458,81.9950487 1199.48154,82.8021242 1197.17456,82.8021242 C1196.77722,82.8021242 1196.38534,82.7787949 1196,82.7321364 C1198.1792,84.1640827 1200.76659,85 1203.54781,85" id="Fill-1"></path>
        </g>
    </g>
</svg>